<?xml version="1.0" encoding="UTF-8"?>
<svg id="Layer_1" xmlns="http://www.w3.org/2000/svg" version="1.1" viewBox="0 0 512 512">
  <!-- Generator: Adobe Illustrator 29.1.0, SVG Export Plug-In . SVG Version: 2.1.0 Build 142)  -->
  <defs>
    <style>
      .st0 {
        fill: #ff6501;
      }

      .st1 {
        fill: #1e9cd7;
      }
    </style>
  </defs>
  <path class="st0" d="M306.77,366.28c13.55,13.32,20.33,30.05,20.33,50.18s-6.78,36.86-20.33,50.18c-13.56,13.32-30.48,19.97-50.77,19.97s-37.22-6.66-50.77-19.97c-13.56-13.32-20.33-30.04-20.33-50.18s6.78-36.86,20.33-50.18c13.56-13.32,30.48-19.98,50.77-19.98s37.22,6.66,50.77,19.98Z"/>
  <path class="st1" d="M423.47,90.52c-44.69-43.94-100.52-65.93-167.47-65.93s-122.78,21.99-167.47,65.93C43.8,134.41,21.46,189.63,21.46,256s22.34,121.59,67.08,165.53c44.69,43.94,100.52,65.89,167.47,65.89s122.78-21.95,167.47-65.89c44.73-43.94,67.07-99.07,67.07-165.53s-22.34-121.59-67.07-165.48ZM352.21,446.74c-25.69,25.25-57.73,37.86-96.21,37.86s-70.51-12.6-96.21-37.86-38.56-56.94-38.56-95.1,12.87-69.85,38.56-95.1c25.69-25.21,57.73-37.86,96.21-37.86s70.51,12.65,96.21,37.86c25.69,25.25,38.56,56.94,38.56,95.1s-12.87,69.85-38.56,95.1Z"/>
</svg>