<?xml version="1.0" encoding="UTF-8"?>
<svg id="Layer_1" xmlns="http://www.w3.org/2000/svg" version="1.1" viewBox="0 0 640 150">
  <!-- Generator: Adobe Illustrator 29.1.0, SVG Export Plug-In . SVG Version: 2.1.0 Build 142)  -->
  <defs>
    <style>
      .st0 {
        fill: #ff6501;
      }

      .st1 {
        fill: #1e9cd7;
      }
    </style>
  </defs>
  <path class="st0" d="M315.69,83.55c2.59,2.54,3.89,5.74,3.89,9.59s-1.3,7.04-3.89,9.59c-2.59,2.54-5.82,3.82-9.7,3.82s-7.11-1.27-9.7-3.82c-2.59-2.55-3.89-5.74-3.89-9.59s1.3-7.04,3.89-9.59c2.59-2.54,5.82-3.82,9.7-3.82s7.11,1.27,9.7,3.82Z"/>
  <g>
    <path class="st1" d="M101.14,72.53c-2.4,10.19-7.65,18.46-15.74,24.81-8.1,6.35-17.39,9.52-27.88,9.52-12.39,0-22.91-4.3-31.55-12.89-8.65-8.59-12.97-19.14-12.97-31.63s4.25-22.73,12.74-31.33c8.49-8.59,18.89-12.89,31.18-12.89,10.79,0,20.29,3.2,28.48,9.59,8.19,6.4,13.39,14.84,15.59,25.33h-25.18c-3.6-7.79-9.8-11.69-18.59-11.69-5.8,0-10.44,2.05-13.94,6.15-3.5,4.1-5.25,9.1-5.25,14.99s1.82,11.02,5.47,15.07c3.65,4.05,8.42,6.07,14.32,6.07,8.09,0,14.09-3.7,17.99-11.09h25.33Z"/>
    <path class="st1" d="M159.16,43.15c-6.4.2-11.27,1.33-14.62,3.37-3.35,2.05-5.02,6.02-5.02,11.92v45.72h-24.88V20.96h23.39v8.84h.3c4-7.79,10.94-11.69,20.84-11.69v25.03Z"/>
    <path class="st1" d="M251.05,63.53c0,2.4-.2,4.6-.6,6.6h-62.36c.7,4.8,2.87,8.62,6.52,11.47,3.65,2.85,7.97,4.27,12.97,4.27,6,0,11.04-2.6,15.14-7.8h25.48c-3.7,8.6-9.12,15.54-16.26,20.84-7.15,5.3-15.27,7.95-24.36,7.95-12.19,0-22.59-4.3-31.18-12.89-8.6-8.59-12.89-18.99-12.89-31.18s4.25-22.68,12.74-31.48c8.49-8.79,18.79-13.19,30.88-13.19s23.06,4.4,31.4,13.19c8.34,8.79,12.52,19.54,12.52,32.23ZM226.16,53.34c-1-4.4-3.25-7.87-6.75-10.42-3.5-2.55-7.55-3.82-12.14-3.82s-8.65,1.27-12.14,3.82c-3.5,2.55-5.75,6.02-6.75,10.42h37.78Z"/>
    <path class="st1" d="M337.99,30.86c-8.54-8.4-19.21-12.6-32-12.6s-23.46,4.2-32,12.6c-8.55,8.39-12.82,18.94-12.82,31.62s4.27,23.24,12.82,31.63c8.54,8.4,19.21,12.59,32,12.59s23.46-4.19,32-12.59c8.55-8.4,12.82-18.93,12.82-31.63s-4.27-23.24-12.82-31.62ZM324.37,98.93c-4.91,4.83-11.03,7.23-18.38,7.23s-13.47-2.41-18.38-7.23c-4.91-4.83-7.37-10.88-7.37-18.17s2.46-13.35,7.37-18.17c4.91-4.82,11.03-7.23,18.38-7.23s13.47,2.42,18.38,7.23c4.91,4.83,7.37,10.88,7.37,18.17s-2.46,13.35-7.37,18.17Z"/>
    <path class="st1" d="M455.06,63.38c0,11.99-3.8,22.26-11.39,30.81-7.6,8.54-17.29,12.82-29.08,12.82-10.4,0-18.74-3.45-25.03-10.34v35.23h-24.88V20.96h23.39v9.14h.45c6.39-7.99,15.04-11.99,25.93-11.99,12.39,0,22.26,4.4,29.61,13.19,7.35,8.79,11.02,19.49,11.02,32.08ZM430.18,62.63c0-6-1.97-11.04-5.92-15.14-3.95-4.1-8.92-6.15-14.92-6.15s-10.97,2.05-14.92,6.15c-3.95,4.1-5.92,9.14-5.92,15.14s2,10.89,6,14.99c4,4.1,8.94,6.15,14.84,6.15s10.84-2.05,14.84-6.15c4-4.1,6-9.09,6-14.99Z"/>
    <path class="st1" d="M531.51,78.67c0,8.9-3.35,15.84-10.04,20.84-6.7,5-14.64,7.49-23.83,7.49s-16.79-2.4-23.09-7.2c-6.3-4.8-9.89-11.59-10.79-20.39h24.73c.4,2.5,1.45,4.4,3.15,5.7,1.7,1.3,3.8,1.95,6.3,1.95,2.1,0,4.07-.57,5.92-1.72,1.85-1.15,2.77-2.72,2.77-4.72,0-.8-.13-1.55-.37-2.25-.25-.7-.63-1.35-1.12-1.95-.5-.6-.97-1.1-1.42-1.5-.45-.4-1.12-.82-2.02-1.27-.9-.45-1.57-.77-2.02-.97-.45-.2-1.2-.5-2.25-.9-1.05-.4-1.72-.65-2.02-.75-4.8-1.6-8.39-2.85-10.79-3.75-13.19-4.8-19.79-12.04-19.79-21.74,0-8.29,3.22-14.94,9.67-19.94,6.45-5,13.96-7.5,22.56-7.5s15.99,2.25,21.89,6.75c5.9,4.5,9.24,10.99,10.04,19.49h-24.43c-.1-4.2-2.7-6.3-7.8-6.3-1.8,0-3.42.5-4.87,1.5-1.45,1-2.17,2.35-2.17,4.05,0,2,1.02,3.7,3.07,5.1,2.05,1.4,4.62,2.47,7.72,3.22,3.1.75,6.47,1.78,10.12,3.07,3.65,1.3,7.02,2.77,10.12,4.42,3.1,1.65,5.67,4.12,7.72,7.42,2.05,3.3,3.07,7.25,3.07,11.84Z"/>
    <path class="st1" d="M627,63.53c0,2.4-.2,4.6-.6,6.6h-62.36c.7,4.8,2.87,8.62,6.52,11.47,3.65,2.85,7.97,4.27,12.97,4.27,6,0,11.04-2.6,15.14-7.8h25.48c-3.7,8.6-9.12,15.54-16.26,20.84-7.15,5.3-15.27,7.95-24.36,7.95-12.19,0-22.59-4.3-31.18-12.89-8.6-8.59-12.89-18.99-12.89-31.18s4.25-22.68,12.74-31.48c8.49-8.79,18.79-13.19,30.88-13.19s23.06,4.4,31.4,13.19c8.34,8.79,12.52,19.54,12.52,32.23ZM602.12,53.34c-1-4.4-3.25-7.87-6.75-10.42-3.5-2.55-7.55-3.82-12.14-3.82s-8.65,1.27-12.14,3.82c-3.5,2.55-5.75,6.02-6.75,10.42h37.78Z"/>
  </g>
</svg>